<svg xmlns="http://www.w3.org/2000/svg" xmlns:xlink="http://www.w3.org/1999/xlink"><symbol id="email" viewBox="0 0 72 72"><path d="M36 72c19.882 0 36-16.118 36-36S55.882 0 36 0 0 16.118 0 36s16.118 36 36 36Z" fill="currentColor"/><path d="M18 26.162v20.386c0 1.109.812 2.007 1.93 2.007h31.815c1.117 0 1.93-.909 1.93-2.007V26.162c0-1.217-.727-2.162-1.93-2.162H19.93c-1.25 0-1.93.969-1.93 2.162m2.933 1.776c0-.491.298-.772.773-.772.293 0 11.854 7.325 12.554 7.755l1.81 1.125c.573-.384 1.15-.713 1.744-1.111 1.213-.776 12.011-7.77 12.308-7.77.477 0 .773.282.773.773 0 .52-1.002 1.037-1.655 1.435-4.1 2.5-8.2 5.224-12.26 7.816-.237.16-.695.503-1.04.45-.382-.059-12.146-7.617-14.287-8.875-.321-.19-.72-.363-.72-.826" fill="#00763d"/></symbol><symbol id="github" viewBox="0 0 128 128"><path clip-rule="evenodd" d="M63.996 1.333C28.656 1.333 0 30.099 0 65.591c0 28.384 18.336 52.467 43.772 60.965 3.2.59 4.368-1.394 4.368-3.096 0-1.526-.056-5.566-.088-10.927-17.804 3.883-21.56-8.614-21.56-8.614-2.908-7.421-7.104-9.397-7.104-9.397-5.812-3.988.44-3.907.44-3.907 6.42.454 9.8 6.622 9.8 6.622 5.712 9.819 14.98 6.984 18.628 5.337.58-4.152 2.236-6.984 4.064-8.59-14.212-1.622-29.152-7.132-29.152-31.753 0-7.016 2.492-12.75 6.588-17.244-.66-1.626-2.856-8.156.624-17.003 0 0 5.376-1.727 17.6 6.586 5.108-1.426 10.58-2.136 16.024-2.165 5.436.028 10.912.739 16.024 2.165 12.216-8.313 17.58-6.586 17.58-6.586 3.492 8.847 1.296 15.377.636 17.003 4.104 4.494 6.58 10.228 6.58 17.244 0 24.681-14.964 30.115-29.22 31.705 2.296 1.984 4.344 5.903 4.344 11.899 0 8.59-.08 15.517-.08 17.626 0 1.719 1.152 3.719 4.4 3.088C109.68 118.034 128 93.967 128 65.591c0-35.492-28.656-64.258-64.004-64.258" fill-rule="evenodd" fill="currentColor"/></symbol><symbol id="minus" viewBox="0 0 52 52"><path d="M26 0C11.664 0 0 11.663 0 26s11.664 26 26 26 26-11.663 26-26S40.336 0 26 0zm12.5 28h-25a2 2 0 0 1 0-4h25a2 2 0 0 1 0 4z" fill="currentColor"/></symbol><symbol id="plus" viewBox="0 0 52 52"><path d="M26 0C11.664 0 0 11.663 0 26s11.664 26 26 26 26-11.663 26-26S40.336 0 26 0zm12.5 28H28v11a2 2 0 0 1-4 0V28H13.5a2 2 0 0 1 0-4H24V14a2 2 0 0 1 4 0v10h10.5a2 2 0 0 1 0 4z" fill="currentColor"/></symbol></svg>